<svg xmlns="http://www.w3.org/2000/svg" viewBox="0 0 620 220" role="img" aria-label="PaxMed">
  <defs>
    <linearGradient id="g" x1="0" y1="0" x2="1" y2="1">
      <stop offset="0" stop-color="#0B6FD8"/>
      <stop offset="1" stop-color="#0D7A6C"/>
    </linearGradient>
    <filter id="s" x="-20%" y="-20%" width="140%" height="140%">
      <feDropShadow dx="0" dy="10" stdDeviation="10" flood-color="#12202f" flood-opacity="0.12"/>
    </filter>
  </defs>
  <rect width="620" height="220" rx="54" fill="white"/>

  <!-- Icon -->
  <g transform="translate(26 18)" filter="url(#s)" fill="none" stroke-linecap="round" stroke-linejoin="round">
    <rect x="0" y="0" width="184" height="184" rx="44" fill="#ffffff" stroke="#D0DAE6"/>
    <!-- Outer clover-cross -->
    <path
      d="M92 22
         C118 22 130 42 130 60
         C130 70 126 79 120 86
         C114 93 106 98 98 100
         C106 102 114 107 120 114
         C126 121 130 130 130 140
         C130 158 118 178 92 178
         C66 178 54 158 54 140
         C54 130 58 121 64 114
         C70 107 78 102 86 100
         C78 98 70 93 64 86
         C58 79 54 70 54 60
         C54 42 66 22 92 22
         Z"
      stroke="#0B6FD8"
      stroke-width="14"
    />
    <!-- Inner weave strokes (approximate) -->
    <path d="M82 54 C72 66 68 80 68 96" stroke="#57D4CC" stroke-width="12"/>
    <path d="M102 162 C112 150 116 136 116 120" stroke="#57D4CC" stroke-width="12"/>
    <path d="M146 98 C134 88 120 84 104 84" stroke="#57D4CC" stroke-width="12"/>
    <path d="M38 118 C50 128 64 132 80 132" stroke="#57D4CC" stroke-width="12"/>
    <path d="M84 54 C98 66 116 84 116 96" stroke="url(#g)" stroke-width="12"/>
    <path d="M46 118 C58 104 76 86 88 84" stroke="url(#g)" stroke-width="12"/>
  </g>

  <!-- Wordmark -->
  <g transform="translate(236 64)">
    <text x="0" y="64"
      font-family="DM Sans, system-ui, -apple-system, Segoe UI, Roboto, Arial"
      font-size="72"
      font-weight="800"
      letter-spacing="2"
      fill="#0B6FD8">MEDLENS</text>
    <text x="2" y="112"
      font-family="DM Sans, system-ui, -apple-system, Segoe UI, Roboto, Arial"
      font-size="24"
      font-weight="700"
      letter-spacing="6"
      fill="#0D7A6C"
      opacity="0.9">SEE THE REAL PRICE</text>
  </g>
</svg>

